# xmcd
#
# Track frame offsets:
#	182
#	20156
#	36652
#	62494
#	65257
#	109535
#	129018
#	150792
#	170631
#	209488
#
# Disc length: 3232 seconds
#
# Revision: 4
# Processed by: cddbd v1.5.2PL0 Copyright (c) Steve Scherf et al.
# Submitted via: EZCDAudioConverter 1.3.4.1
#
DISCID=800c9e0a
DTITLE=Walter Trout Band - Life In The Jungle
DYEAR=1989
DGENRE=Blues
TTITLE0=Good Enough To Eat
TTITLE1=The Mountain Song
TTITLE2=Life In The Jungle
TTITLE3=Spacefish
TTITLE4=Red House
TTITLE5=She's Out There Somewhere
TTITLE6=Frederica (I Don't Need You)
TTITLE7=In My Mind
TTITLE8=Cold Cold Feeling
TTITLE9=Serve Me Right To Suffer
EXTD=
EXTT0=
EXTT1=
EXTT2=
EXTT3=
EXTT4=
EXTT5=
EXTT6=
EXTT7=
EXTT8=
EXTT9=
PLAYORDER=
